<svg width="435" height="144" viewBox="0 0 435 144" fill="none" xmlns="http://www.w3.org/2000/svg">
<g filter="url(#filter0_d)">
<rect x="30" y="32" width="375" height="84" fill="white"/>
</g>
<path d="M70.514 56.477C70.153 56.1964 69.6477 56.1964 69.2866 56.477L62.1363 62.0346C61.8926 62.224 61.75 62.5154 61.75 62.8241V73C61.75 73.5523 62.1977 74 62.75 74H66.3574C66.9097 74 67.3574 73.5523 67.3574 73V67.9581C67.3574 67.4058 67.8052 66.9581 68.3574 66.9581H71.4432C71.9955 66.9581 72.4432 67.4058 72.4432 67.9581V73C72.4432 73.5523 72.891 74 73.4432 74H77.0507C77.603 74 78.0507 73.5523 78.0507 73V62.8241C78.0507 62.5154 77.9081 62.224 77.6643 62.0346L70.514 56.477Z" fill="#FFC278"/>
<g clip-path="url(#clip0)">
<path d="M365 65C367.475 65 369.5 62.975 369.5 60.5C369.5 58.025 367.475 56 365 56C362.525 56 360.5 58.025 360.5 60.5C360.5 62.975 362.525 65 365 65ZM365 67.25C362.019 67.25 356 68.7688 356 71.75V72C356 73.1046 356.895 74 358 74H372C373.105 74 374 73.1046 374 72V71.75C374 68.7688 367.981 67.25 365 67.25Z" fill="#FFC278"/>
</g>
<path d="M264.25 54.5C264.25 53.6716 264.922 53 265.75 53V53C266.578 53 267.25 53.6716 267.25 54.5V69.5C267.25 70.3284 266.578 71 265.75 71V71C264.922 71 264.25 70.3284 264.25 69.5V54.5Z" fill="#EE6C4D"/>
<path d="M259.75 67.25C259.75 66.4216 260.422 65.75 261.25 65.75V65.75C262.078 65.75 262.75 66.4216 262.75 67.25V69.5C262.75 70.3284 262.078 71 261.25 71V71C260.422 71 259.75 70.3284 259.75 69.5V67.25Z" fill="#EE6C4D"/>
<path d="M268.75 64.25C268.75 63.4216 269.422 62.75 270.25 62.75V62.75C271.078 62.75 271.75 63.4216 271.75 64.25V69.5C271.75 70.3284 271.078 71 270.25 71V71C269.422 71 268.75 70.3284 268.75 69.5V64.25Z" fill="#EE6C4D"/>
<path d="M273.25 59.75C273.25 58.9216 273.922 58.25 274.75 58.25V58.25C275.578 58.25 276.25 58.9216 276.25 59.75V69.5C276.25 70.3284 275.578 71 274.75 71V71C273.922 71 273.25 70.3284 273.25 69.5V59.75Z" fill="#EE6C4D"/>
<path d="M158.338 65.3643V68.59C158.338 69.428 158.797 70.2085 159.531 70.6103L165.271 73.7441C165.96 74.1229 166.786 74.1229 167.475 73.7441L173.215 70.6103C173.949 70.2085 174.408 69.428 174.408 68.59V65.3643L167.475 69.1525C166.786 69.5313 165.96 69.5313 165.271 69.1525L158.338 65.3643ZM165.271 54.2755L155.594 59.5559C154.802 59.9921 154.802 61.14 155.594 61.5762L165.271 66.8566C165.96 67.2354 166.786 67.2354 167.475 66.8566L176.704 61.8173V68.6015C176.704 69.2328 177.221 69.7494 177.852 69.7494C178.483 69.7494 179 69.2328 179 68.6015V61.2433C179 60.8186 178.77 60.4398 178.403 60.2332L167.475 54.2755C167.136 54.0946 166.757 54 166.373 54C165.989 54 165.61 54.0946 165.271 54.2755V54.2755Z" fill="#FFC278" fill-opacity="0.8"/>
<defs>
<filter id="filter0_d" x="0" y="0" width="435" height="144" filterUnits="userSpaceOnUse" color-interpolation-filters="sRGB">
<feFlood flood-opacity="0" result="BackgroundImageFix"/>
<feColorMatrix in="SourceAlpha" type="matrix" values="0 0 0 0 0 0 0 0 0 0 0 0 0 0 0 0 0 0 127 0"/>
<feOffset dy="-2"/>
<feGaussianBlur stdDeviation="15"/>
<feColorMatrix type="matrix" values="0 0 0 0 0 0 0 0 0 0 0 0 0 0 0 0 0 0 0.07 0"/>
<feBlend mode="normal" in2="BackgroundImageFix" result="effect1_dropShadow"/>
<feBlend mode="normal" in="SourceGraphic" in2="effect1_dropShadow" result="shape"/>
</filter>
<clipPath id="clip0">
<rect width="24" height="24" fill="white" transform="translate(353 53)"/>
</clipPath>
</defs>
</svg>
